<svg width="556" height="385" viewBox="0 0 556 385" fill="none" xmlns="http://www.w3.org/2000/svg">
<g opacity="0.5" clip-path="url(#clip0_17_425)">
<path d="M474.612 301.964V301.043L473.688 298.283V296.455V295.535H475.536V296.455V298.283H476.448H481.981L483.817 297.363L485.665 295.535L487.501 293.694H489.349L490.274 294.615V295.535L489.349 298.283L488.425 300.123L490.274 301.043V301.964H488.425H487.501H484.741H482.905L480.132 302.884L477.372 301.964H476.448H475.536H474.612Z" fill="#E8EBEB" stroke="white" stroke-width="3" stroke-miterlimit="10" stroke-linecap="square"/>
<path d="M21.4898 81.3432L22.414 77.6625V73.0616H20.5657H18.7297H16.8813H14.1212V70.3134H13.197L88.7195 0.44165L93.3279 5.96268L97.0123 6.88285L97.9364 8.7232L101.621 13.3118L102.533 15.1521L101.621 16.0723L100.697 17.9127L98.8483 19.753L97.0123 21.5933L94.2521 26.1819L90.5678 28.0223L89.6436 30.7828L90.5678 32.6231L91.4796 33.5433L94.2521 35.3714H95.164V37.2117L94.2521 38.1319V39.9722V41.8126L93.3279 43.6529L90.5678 44.5731H89.6436L88.7195 46.4134V48.2415H90.5678H91.4796H92.4038L91.4796 51.002L90.5678 52.8424L88.7195 54.6827H87.7953L85.9593 55.6029H85.0351L84.1233 57.4432L83.1991 59.2836L84.1233 60.2038L83.1991 65.7125H84.1233L85.0351 66.6327L86.8835 68.473V70.3134H87.7953V73.0616L85.9593 77.6625V79.5028H85.0351H83.1991L82.275 82.2634V84.1037L83.1991 85.9318V87.7721L81.3508 90.5326H80.439L79.5148 92.373V95.1335V96.9738H80.439H82.275V98.8019V99.7221L83.1991 106.163H84.1233L83.1991 108.004L82.275 110.752V114.433H83.1991H84.1233H85.0351L85.9593 115.353L86.8835 117.193H88.7195H89.6436L91.4796 119.033H93.3279V120.874L92.4038 123.622V125.462L90.5678 126.383L89.6436 130.063L74.9063 121.794L56.4847 109.844L38.0631 96.9738L21.4898 81.3432Z" fill="#E8EBEB" stroke="white" stroke-width="3" stroke-miterlimit="10" stroke-linecap="square"/>
<path d="M4.91659 167.753L5.82843 170.514L6.75259 172.342L5.82843 174.182L4.91659 175.103L3.99243 176.943L4.91659 180.624L3.99243 181.544H2.14411V180.624L0.308105 176.943V175.103V170.514L2.14411 169.594L3.06827 165.913V161.312L3.99243 159.472L5.82843 156.724H6.75259L7.67675 158.564L8.60091 159.472V161.312H9.51275H11.3611L12.2852 163.153L11.3611 164.073L9.51275 164.993L8.60091 165.913L6.75259 167.753H4.91659Z" fill="#E8EBEB" stroke="white" stroke-width="3" stroke-miterlimit="10" stroke-linecap="square"/>
<path d="M27.9344 247.723V246.803V244.974L29.7827 242.214L27.9344 236.693L27.0225 234.853L25.1742 232.104V227.503L23.3382 221.075L21.4899 219.234L20.5657 218.314L16.8814 214.633L15.9696 210.032L14.1212 207.284L12.2852 205.444H11.3611H9.51276H8.60092L7.67676 207.284L8.60092 210.032L10.4369 211.873L11.3611 212.793L9.51276 214.633V217.394L10.4369 218.314L12.2852 219.234H14.1212V221.075V224.743V225.663L15.9696 228.424V230.264L16.8814 231.184L17.8056 232.104V234.853L18.7297 236.693H20.5657L21.4899 239.453L22.4141 241.294V244.054V247.723H23.3382L27.0225 249.563L27.9344 247.723Z" fill="#E8EBEB" stroke="white" stroke-width="3" stroke-miterlimit="10" stroke-linecap="square"/>
<path d="M95.1639 274.383L83.1991 269.794L67.5377 263.353L52.8004 256.004L40.8356 249.563L34.3788 244.974V241.294V240.374L36.2271 239.453L34.3788 238.533V236.693H31.6186V235.773L27.9343 230.264V227.503L29.7826 225.663V221.074H27.9343L27.0224 223.823L25.1741 222.903V221.074L23.3381 218.314L22.414 216.474L20.5656 214.633L17.8055 210.032L16.8813 207.284L15.9695 205.444V203.603L16.8813 202.683H20.5656V200.843L21.4898 197.162L22.414 196.254H25.1741H27.0224V194.414V192.574L25.1741 191.654L22.414 192.574L21.4898 189.813L20.5656 187.973V186.132V185.212L21.4898 183.384L22.414 181.544V179.704L23.3381 178.783L25.1741 176.943L27.0224 175.103V174.182L25.1741 172.342L23.3381 175.103H21.4898V172.342V170.514L22.414 167.754V165.913V164.073L21.4898 161.312V159.472H23.3381L25.1741 158.564L27.0224 156.724L27.9343 154.883L31.6186 153.043V150.283V148.442V145.694V141.093L29.7826 139.253H27.9343L27.0224 136.492L27.9343 134.652L29.7826 132.824L31.6186 130.063V126.383V123.622L34.3788 119.034V112.592V108.004L32.5428 103.403V101.563L34.3788 99.7222L32.5428 96.9739L31.6186 95.1336H27.9343H27.0224L23.3381 96.9739H21.4898H20.5656L16.8813 98.802L15.9695 96.9739L16.8813 95.1336L17.8055 92.3731L18.7296 88.6924L20.5656 85.9319L21.4898 81.3433L38.0631 96.9739L56.4847 109.844L74.9063 121.794L89.6436 130.063L99.7724 136.492L109.901 141.093L77.6665 202.683V205.444V209.112L79.5148 212.793L82.275 216.474V217.394V219.234L80.439 221.074V223.823L81.3508 224.743L84.1233 225.663L85.0351 228.424V232.104V233.945L85.9593 235.773L88.7194 236.693L89.6436 238.533L90.5678 239.453V241.294V246.802V247.723L91.4796 250.483L93.3279 251.403L94.2521 252.324L95.1639 254.164L96.0881 256.924V258.765L95.1639 260.593L93.3279 261.513V263.353L92.4038 265.194L93.3279 267.034H94.2521V267.954V269.794V272.543L95.1639 274.383Z" fill="#E8EBEB" stroke="white" stroke-width="3" stroke-miterlimit="10" stroke-linecap="square"/>
<path d="M109.901 141.093L77.6665 202.683V205.444V209.112L79.5148 212.793L82.275 216.474V217.394V219.234L80.439 221.074V223.823L81.3508 224.743L84.1233 225.663L85.0352 228.423V232.104V233.945L85.9593 235.773L88.7195 236.693L89.6436 238.533L90.5678 239.453V241.294V246.802V247.723L91.4796 250.483L93.328 251.403L94.2521 252.323L95.164 254.164L96.0881 256.924V258.765L95.164 260.593L93.328 261.513V263.353L92.4038 265.194L93.328 267.034H94.2521V267.954V269.794V272.543L95.164 274.383L99.7724 276.223L118.194 281.744L124.639 283.585L161.482 161.312L141.212 154.883L125.563 148.442L109.901 141.093Z" fill="#E8EBEB" stroke="white" stroke-width="3" stroke-miterlimit="10" stroke-linecap="square"/>
<path d="M161.482 161.312L124.639 283.585L138.452 287.253L158.722 292.774L180.815 297.363L187.272 298.283L207.53 174.182L191.868 170.514L177.131 165.913L161.482 161.312Z" fill="#E8EBEB" stroke="white" stroke-width="3" stroke-miterlimit="10" stroke-linecap="square"/>
<path d="M207.53 174.182L187.272 298.283L202.921 301.043L225.951 303.804L233.32 304.724H234.232L233.32 301.964L234.232 300.123L237.916 262.433L248.057 254.164L282.128 218.314L279.368 216.473L275.683 214.633L271.999 213.713L270.151 214.633L265.555 216.473L258.186 218.314L254.502 219.234L251.729 220.154V219.234L252.653 218.314L254.502 217.394H257.262L260.022 214.633L260.946 213.713L260.022 210.032L259.098 205.444V201.763L258.186 197.162L257.262 194.414H256.338H254.502H252.653H251.729L249.893 192.574L248.969 191.653L248.057 192.574L247.133 191.653L246.209 189.813L247.133 187.053L248.057 183.384L248.969 181.544V179.703L237.916 178.783L223.179 176.943L207.53 174.182Z" fill="#E8EBEB" stroke="white" stroke-width="3" stroke-miterlimit="10" stroke-linecap="square"/>
<path d="M349.357 278.984L347.522 278.064H345.673L343.837 278.984L341.989 278.064V276.223L341.065 272.543L339.229 269.795H336.469L335.544 267.034L334.62 264.273L332.784 263.353L330.012 261.513L329.1 258.765L330.012 255.084L329.1 253.244L328.176 250.483L327.252 246.802L326.34 243.134L327.252 239.453L328.176 235.773V234.853H325.416L321.731 235.773L317.123 234.853H314.363L311.602 236.693H310.678L306.994 235.773L306.07 233.945L305.146 231.184L302.385 230.264L296.865 229.344L293.181 225.663H292.257L291.333 221.074L290.421 219.234L287.648 218.314H285.812H283.964H282.128L248.057 254.164L237.916 262.433L234.232 300.123L236.08 301.044L237.004 305.644L237.916 306.565L243.449 308.405L248.969 310.233L253.577 312.994L257.262 314.834L259.098 317.594H260.946H263.706L267.391 314.834L269.239 313.914L276.608 317.594H278.444L280.28 315.754L281.204 314.834L284.888 313.914L285.812 312.073L286.736 309.313L287.648 307.485L290.421 306.565L294.105 308.405L299.625 309.313L302.385 311.153L304.234 313.914L305.146 316.674L306.994 317.594L310.678 319.435L311.602 320.355L312.514 322.183L314.363 323.103V324.944V331.385L315.287 335.053L316.199 335.973L319.883 336.893L320.807 337.814L322.655 338.734L327.252 336.893L330.936 337.814L333.696 338.734L338.305 337.814L341.065 338.734L341.989 339.654L343.837 340.574L345.673 339.654H346.597H348.433L350.282 340.574V341.494L351.206 344.255L352.118 347.923L354.89 350.684V352.524V354.364L352.118 355.285L350.282 354.364L349.357 352.524L346.597 350.684L342.913 347.923V348.843L343.837 349.764L344.749 351.604V354.364L342.913 358.045L341.989 361.714L342.913 366.314L341.989 369.075L339.229 369.995L338.305 372.743L336.469 377.344L337.38 379.185L336.469 381.025H335.544H332.784V382.865V383.785L333.696 384.693H334.62L337.38 383.785L341.989 381.025L343.837 378.264L346.597 375.504H349.357H352.118L354.89 374.584L357.65 371.835H359.486L362.246 370.915L364.095 369.995L365.019 369.075V368.155V367.235H363.171H358.562H357.65V366.314L358.562 363.554L362.246 360.793L365.931 358.953L369.615 358.045L373.299 358.953L377.908 358.045L380.668 356.205L383.441 355.285L386.201 350.684L389.885 345.175L394.481 341.494L397.254 339.654L401.85 335.973H400.938L397.254 335.053H394.481L390.797 336.893L388.961 337.814H386.201H380.668L369.615 333.225H365.931L360.41 328.624L356.726 325.864L355.802 323.103L351.206 280.824L349.357 278.984Z" fill="#E8EBEB" stroke="white" stroke-width="3" stroke-miterlimit="10" stroke-linecap="square"/>
<path d="M503.163 292.774V290.014V289.094V285.413V284.493H501.314H499.478V286.333V288.173L498.554 291.854L496.718 293.694V296.455L497.63 299.203L499.478 301.043L503.163 300.123H504.087L505.923 298.283L507.771 296.455V293.694V292.774V291.854V290.934L504.087 292.774H503.163Z" fill="#E8EBEB" stroke="white" stroke-width="3" stroke-miterlimit="10" stroke-linecap="square"/>
<path d="M475.536 309.313V311.153L476.448 312.073H478.297L481.057 311.153L481.981 310.233L482.905 312.073L481.981 313.914L479.221 314.834L480.133 316.674L479.221 317.594L476.448 316.674L473.688 317.594L472.764 319.435L470.928 323.103L468.168 325.864L466.319 327.704L465.395 330.464L466.319 335.053L467.244 335.973H470.928L472.764 337.814H473.688L475.536 336.893V335.053L477.372 333.225L478.297 331.385L480.133 327.704V324.943L481.981 322.183H483.817H485.665L486.589 319.435L487.501 317.594L491.186 316.674L493.946 313.914L497.63 309.313L501.314 306.564L503.163 304.724V303.804L501.314 301.964H498.554L495.794 303.804L491.186 304.724H487.501L484.741 306.564H482.905L481.981 305.644H480.133L478.297 306.564V307.485H476.448L475.536 309.313Z" fill="#E8EBEB" stroke="white" stroke-width="3" stroke-miterlimit="10" stroke-linecap="square"/>
<path d="M521.584 236.693V241.294L524.344 240.374L526.18 242.214L528.029 243.134L532.637 240.374L534.473 236.693L536.322 235.773H539.082L540.006 236.693L539.082 241.294V244.054L540.006 245.895H541.842L542.766 244.054L544.602 241.294L545.526 238.533L547.374 239.453V244.054V245.895L545.526 246.802V249.563V250.483L548.286 251.403V250.483V246.802L549.21 245.895L550.135 246.802V247.723V249.563V251.403L551.046 254.164L552.895 251.403H553.819H554.731L555.655 252.324L554.731 256.004V258.765V261.513L552.895 263.353H551.971L551.046 261.513L550.135 262.433L548.286 263.353H547.374H546.45L545.526 260.593L546.45 257.845V255.084L545.526 254.164L544.602 253.244V255.084L542.766 257.845L541.842 260.593L540.006 262.433V265.194L539.082 267.954L538.157 269.795H536.322H534.473V268.874V267.954L536.322 265.194L538.157 261.513V258.765H536.322L534.473 260.593L533.549 263.353H532.637L530.789 262.433H529.865L528.953 264.273L526.18 265.194L516.976 268.874L514.216 269.795L510.531 273.463L507.771 274.383H505.923L504.087 273.463L505.923 269.795L507.771 265.194V264.273L510.531 263.353L508.683 262.433L507.771 261.513L505.923 263.353H504.087L503.163 262.433V260.593H504.087L505.923 257.845L507.771 256.004L508.683 253.244L507.771 251.403V245.895L505.923 240.374L507.771 235.773L505.923 232.104L507.771 227.503V223.823L512.367 220.154L514.216 219.234H515.14V221.074V222.903L512.367 225.663V229.344L514.216 232.104V236.693V241.294V242.214L515.14 243.134L516.976 242.214V239.453L519.736 236.693H521.584Z" fill="#E8EBEB" stroke="white" stroke-width="3" stroke-miterlimit="10" stroke-linecap="square"/>
<path d="M503.163 225.663H505.923V224.743L507.771 221.074L510.531 218.314V214.633L507.771 211.873L505.923 209.112L504.087 203.603L503.163 202.683L501.314 201.763H496.718L494.87 200.843L491.185 199.002H490.274H487.501L486.589 200.843L484.741 203.603L483.817 208.204L481.057 210.032L480.132 211.873L479.221 214.633L478.296 217.394H477.372H475.536V216.474V214.633L476.448 210.032L479.221 207.284L481.981 203.603L483.817 199.002L485.665 198.082L487.501 196.254V194.414H485.665H481.981L481.057 192.574H480.132L479.221 194.414L476.448 197.162L472.764 194.414L470.928 196.254L467.244 194.414L464.483 192.574L462.635 191.653H458.039L456.191 190.733L454.355 187.973L453.43 186.132V181.544L451.582 178.783L449.746 176.943H446.986L446.062 175.103L445.138 172.342L439.617 170.514L435.933 167.753L433.173 163.153L431.324 161.312L426.716 159.472L424.88 156.724L423.032 154.883L420.271 153.963L421.196 159.472L423.032 163.153L426.716 165.913L431.324 172.342L430.4 176.943H435.933L437.769 183.384L440.541 187.053L437.769 191.653L446.062 200.843L445.138 203.603L449.746 207.284L446.062 214.633L440.541 212.793L437.769 214.633L430.4 212.793L427.64 210.032L430.4 219.234L423.956 214.633V219.234L425.804 222.902L427.64 228.423L430.4 232.104V235.773L432.249 241.294L437.769 235.773V243.134L444.213 246.802L448.822 241.294L453.43 247.723L456.191 243.134L453.43 236.693V232.104L456.191 233.944V235.773L459.875 240.373L501.314 221.074L503.163 225.663Z" fill="#E8EBEB" stroke="white" stroke-width="3" stroke-miterlimit="10" stroke-linecap="square"/>
<path d="M435.009 303.804L436.845 306.564H437.769L441.453 305.644L442.377 303.804L443.302 302.884H445.138L446.062 303.804V308.405L448.822 317.594L449.746 319.435H453.43L454.355 320.355V323.103L457.115 324.023V324.943H458.951V323.103L461.723 322.183L464.483 321.275L467.244 317.594L470.928 315.754L472.764 313.914L473.688 310.233V308.405L475.536 309.313L476.448 307.485L478.297 306.564L477.372 305.644L479.221 303.804H477.372L473.688 304.724L470.004 301.043V297.363L469.092 296.455H465.395V294.615L466.319 291.854L465.395 290.934L464.483 290.014H462.635L461.723 291.854H459.875L458.039 290.934H455.266H453.43L450.67 291.854H449.746L448.822 292.774L446.986 293.694H446.062H444.213L442.377 292.774L441.453 293.694L440.541 294.615L439.617 296.455V299.203V300.123L438.693 301.964L436.845 302.884L435.009 303.804Z" fill="#E8EBEB" stroke="white" stroke-width="3" stroke-miterlimit="10" stroke-linecap="square"/>
<path d="M435.009 303.804L436.845 302.884L438.693 301.964L439.617 300.123V299.203V296.455L440.541 294.615L441.453 293.694L442.377 292.774L444.213 293.694H446.062H446.986L448.822 292.774L449.746 291.854H450.67L453.43 290.934H455.266L456.191 288.173L457.115 286.333L458.951 285.413H461.723L462.635 284.493L463.559 282.665L467.243 280.824L468.168 278.984V277.144L466.319 276.223L465.395 274.383L464.483 273.463H461.723L457.115 274.383L453.43 276.223L448.822 278.984L445.138 281.744L440.541 287.253L436.845 291.854L432.249 297.363L430.4 303.804L428.564 308.405L426.716 312.993L423.956 316.674L420.271 318.514L414.751 321.275L411.991 324.943L409.218 328.624L408.307 333.225L406.458 335.973L401.85 338.734L399.09 339.654L398.166 341.494L409.218 337.814L414.751 336.893L420.271 335.973L422.12 335.053L423.032 333.225L423.956 331.385H427.64L430.4 324.943V323.103L428.564 320.355V317.594L430.4 313.914L432.249 308.405L435.009 303.804Z" fill="#E8EBEB" stroke="white" stroke-width="3" stroke-miterlimit="10" stroke-linecap="square"/>
<path d="M462.635 265.194L465.395 263.353L470.004 262.433H471.852H474.612L479.221 263.353L481.981 262.433H483.817L484.741 264.273V265.194V266.114L481.981 267.034H480.132L478.296 267.954L473.688 267.034H470.004L468.168 265.194H465.395H463.559H462.635Z" fill="#E8EBEB" stroke="white" stroke-width="3" stroke-miterlimit="10" stroke-linecap="square"/>
<path d="M344.749 145.694H352.118L354.89 150.282L359.486 148.442L363.171 143.854H367.779L371.463 152.123L377.908 150.282L378.832 154.883L382.516 156.724L384.352 154.883L388.037 156.724L391.721 154.883H394.481L390.797 159.472L393.569 164.993L392.645 170.514L394.481 174.182L399.09 176.943L400.014 178.783L403.698 176.943L406.458 178.783L405.534 186.132L409.219 183.384V176.943H413.827L415.663 170.514L421.196 176.943L418.435 167.753L420.271 164.073L418.435 159.472L419.347 153.043L420.271 153.963L421.196 159.472L423.032 163.153L426.716 165.913L427.64 170.514L431.324 172.342L430.4 176.943H435.933L437.769 183.384L440.541 187.053L437.769 191.653L443.302 198.082L446.062 200.843L445.138 203.603L449.746 207.284L446.062 214.633L440.541 212.793L437.769 214.633L430.4 212.793L427.64 210.032L430.4 219.234L423.956 214.633V219.234L425.804 222.902L427.64 228.423L430.4 232.104V235.773L432.249 241.294L437.769 235.773V243.134L444.213 246.802L448.822 241.294L453.43 247.723L456.191 243.134L453.43 236.693V232.104L456.191 233.944V235.773L459.875 240.373L501.314 221.074L503.163 225.663L501.314 230.264L494.87 232.104V239.453L490.274 244.974V247.723L482.905 253.244L473.688 256.924L455.266 262.433L445.138 265.194L442.377 269.794L443.302 277.144L436.845 279.904L430.4 290.934L426.716 303.804L424.88 307.485L422.12 313.914L412.903 318.514L408.307 324.943L406.458 329.544L404.622 333.225L401.85 335.973H400.938L397.254 335.053H394.481L390.797 336.893L388.961 337.814H380.668L369.615 333.225H365.931L360.41 328.624L356.726 325.864L355.802 323.103L351.206 280.824L349.357 278.984L351.206 274.383L355.802 273.463L353.042 267.954L353.966 263.353L353.042 258.765L351.206 256.004L350.282 253.244L352.118 247.723L347.521 244.974L346.597 239.453L351.206 235.773L356.726 230.264L363.171 219.234L367.779 218.314L364.095 213.713L361.335 208.204L355.802 199.002L348.433 194.414L346.597 192.574L347.521 187.053L351.206 181.544V175.103L348.433 172.342L347.521 167.753H344.749V164.073L346.597 159.472L341.065 156.724V152.123L344.749 145.694Z" fill="#E8EBEB" stroke="white" stroke-width="3" stroke-miterlimit="10" stroke-linecap="square"/>
<path d="M311.603 22.5136V24.3416V26.182L312.514 27.1021L314.363 28.0223L315.287 28.9425L316.199 30.7828V32.6232H318.971H320.807H322.656H323.567H325.416H326.34L327.252 30.7828V28.9425L326.34 28.0223V27.1021L324.491 26.182H322.656V24.3416L321.731 22.5136V21.5934H320.807H318.971H318.047L315.287 22.5136H313.439H311.603Z" fill="#E8EBEB" stroke="white" stroke-width="3" stroke-miterlimit="10" stroke-linecap="square"/>
<path d="M236.08 66.6327L237.004 63.8722V62.0318H236.08L234.232 60.2037L232.396 59.2836L231.472 55.6029V52.8424L230.547 51.002H229.636H227.787H226.863L225.951 48.2415V43.6529L226.863 37.2117L227.787 32.6231L226.863 28.0223L227.787 27.1021V26.1819L223.179 21.5933H222.267L220.419 22.5135L219.507 24.3416V28.0223V33.5433V37.2117V39.0521L217.658 39.9722L216.734 39.0521L214.898 38.1319V35.3714L215.822 30.7828L216.734 28.0223L215.822 24.3416H213.974H212.138L209.366 27.1021L208.454 28.0223H205.681H204.77L203.845 27.1021L204.77 26.1819H206.606V24.3416L205.681 21.5933H204.77H202.921H200.161H199.237H198.313V19.753H200.161L201.085 17.9126L201.997 16.9925V15.1521L201.085 13.3118H200.161H198.313L196.477 15.1521H195.553L192.792 16.0723L191.868 15.1521H189.108H187.272L186.348 16.0723L185.424 17.9126L183.588 24.3416H181.739H178.979V27.1021L180.815 28.0223L183.588 28.9424L186.348 30.7828L189.108 32.6231V33.5433H187.272H184.5L181.739 32.6231H179.903H178.055L176.219 35.3714L177.131 37.2117H178.979L179.903 38.1319L185.424 39.9722L189.108 41.8126L194.641 46.4134L196.477 48.2415V49.1617L195.553 51.002H194.641L191.868 49.1617L187.272 48.2415L182.664 46.4134L178.979 44.5731H177.131L175.295 46.4134V48.2415V51.002L178.055 52.8424L181.739 55.6029L187.272 59.2836L186.348 62.0318V65.7125V66.6327L187.272 68.473H189.108H192.792H194.641L197.401 70.3134H200.161H202.921L204.77 68.473H206.606H208.454H211.214L212.138 66.6327L213.05 65.7125H213.974H215.822V68.473H216.734L218.583 70.3134L225.951 76.7423H228.711L231.472 74.902H232.396L233.32 71.2335L232.396 70.3134H230.547H229.636H228.711H227.787V68.473L228.711 66.6327L230.547 65.7125H233.32L235.156 66.6327H236.08Z" fill="#E8EBEB" stroke="white" stroke-width="3" stroke-miterlimit="10" stroke-linecap="square"/>
<path d="M225.027 19.7531L226.863 17.9127L229.636 16.9926L231.472 17.9127L232.396 19.7531L233.32 22.5136V26.182L232.396 27.1022L231.472 28.0224H230.547L229.636 27.1022V24.3417L228.711 21.5934H225.951L225.027 19.7531Z" fill="#E8EBEB" stroke="white" stroke-width="3" stroke-miterlimit="10" stroke-linecap="square"/>
<path d="M248.057 51.0021L247.133 49.1617L245.285 44.5731L243.449 41.8126L240.688 39.0521L238.84 37.2118H237.916V32.6232L238.84 30.7828H239.764L240.688 32.6232L242.525 33.5434L243.449 35.3714H245.285L246.209 32.6232L247.133 28.9425L246.209 26.182H245.285V24.3416V22.5136L246.209 21.5934H248.057L249.893 22.5136L250.817 24.3416H252.653L254.502 22.5136H255.413L256.338 24.3416V27.1021L255.413 28.9425L253.577 30.7828L252.653 32.6232L253.577 33.5434L255.413 35.3714H256.338L257.262 37.2118V39.0521L256.338 41.8126L254.502 44.5731L252.653 48.2416L250.817 49.1617L248.057 51.0021Z" fill="#E8EBEB" stroke="white" stroke-width="3" stroke-miterlimit="10" stroke-linecap="square"/>
<path d="M243.449 77.6626L242.525 76.7424V74.9021H243.449L245.285 73.0617L246.209 71.2337V70.3135L247.133 68.4732L248.057 66.6328H248.969L249.893 68.4732H250.817V70.3135L251.729 71.2337L253.578 74.9021L254.502 76.7424L256.338 77.6626V79.503V81.3433L255.414 82.2635L254.502 84.1038H253.578H251.729L250.817 82.2635L248.969 81.3433L246.209 79.503L243.449 77.6626Z" fill="#E8EBEB" stroke="white" stroke-width="3" stroke-miterlimit="10" stroke-linecap="square"/>
<path d="M263.706 43.653L262.782 39.9723L261.87 37.2118V35.3714L262.782 32.6232V30.7828L261.87 27.1022V26.182V24.3416L263.706 21.5934L265.555 19.7531H267.391L268.315 21.5934H270.151H273.835H274.759H275.683V26.182L273.835 28.0223V32.6232V35.3714L272.923 37.2118H271.075H269.239L268.315 35.3714H267.391H266.467V37.2118L267.391 39.0521V41.8126V43.653H266.467H264.631H263.706Z" fill="#E8EBEB" stroke="white" stroke-width="3" stroke-miterlimit="10" stroke-linecap="square"/>
<path d="M341.989 84.1038L341.065 82.2634H339.229L337.38 84.1038H335.544V85.9318V90.5327L336.469 93.2932L338.305 95.1336H341.065L341.989 93.2932V90.5327L342.913 85.9318L341.989 84.1038Z" fill="#E8EBEB" stroke="white" stroke-width="3" stroke-miterlimit="10" stroke-linecap="square"/>
<path d="M303.31 112.592H301.461H300.549L298.701 117.193L296.865 126.383L297.789 128.223L299.625 130.063V132.824L298.701 134.652L296.865 136.492L295.941 137.412V141.093H296.865H298.701H301.461H302.385H304.234L305.146 145.694H306.07L307.918 143.854L308.83 141.093L309.754 137.412L310.678 136.492H311.602H313.438L314.363 134.652V132.824H315.287H316.199L317.123 134.652L318.971 136.492L319.883 137.412L321.731 139.253H324.491H326.34L327.251 137.412V136.492V132.824L326.34 131.904H325.415L322.655 132.824H321.731L320.807 131.904L319.883 130.063L320.807 126.383H319.883L318.971 125.462H315.287L311.602 123.622L308.83 121.794V119.033H306.994H306.07H305.146L303.31 117.193L302.385 115.353L303.31 112.592Z" fill="#E8EBEB" stroke="white" stroke-width="3" stroke-miterlimit="10" stroke-linecap="square"/>
<path d="M321.731 145.694H319.883L318.047 147.522L317.123 148.442L315.287 147.522H313.438L311.602 150.282L310.678 153.043V154.883H311.602H313.438H314.363H316.199L317.123 153.963L318.047 153.043L319.883 152.123L321.731 150.282L322.655 147.522L321.731 145.694Z" fill="#E8EBEB" stroke="white" stroke-width="3" stroke-miterlimit="10" stroke-linecap="square"/>
<path d="M333.696 159.472H335.545L336.469 154.883V153.043L335.545 152.123L333.696 150.282L332.784 152.123L330.936 153.963V156.724H331.86L332.784 159.472H333.696Z" fill="#E8EBEB" stroke="white" stroke-width="3" stroke-miterlimit="10" stroke-linecap="square"/>
<path d="M102.533 15.1522L101.621 16.0724L100.697 17.9127L98.8483 19.7531L97.0123 21.5934L94.2522 26.182L90.5679 28.0224L89.6437 30.7829L90.5679 32.6232L91.4797 33.5434L94.2522 35.3715H95.164V37.2118L94.2522 38.132V39.9723V41.8127L93.328 43.653L90.5679 44.5732H89.6437L88.7195 46.4135V48.2416H90.5679H91.4797H92.4039L91.4797 51.0021L90.5679 52.8425L88.7195 54.6828H87.7954H85.9594L85.0352 55.603L84.1234 57.4433L83.1992 59.2837L84.1234 60.2038L83.1992 65.7126H84.1234L85.0352 66.6328L86.8835 68.4731V70.3135H87.7954V73.0617L85.9594 77.6626V79.5029H85.0352H83.1992L82.2751 82.2635V84.1038L83.1992 85.9319V87.7722L81.3509 90.5327H80.4391L79.5149 92.3731V95.1336V96.9739H80.4391H82.2751V98.802V99.7222L83.1992 106.163H84.1234L83.1992 108.004L82.2751 110.752V114.433H83.1992H84.1234H85.0352L85.9594 115.353L86.8835 117.193H88.7195H89.6437L91.4797 119.034H93.328V120.874L92.4039 123.622V125.462L90.5679 126.383L89.6437 130.063L99.7725 136.492L109.901 141.093L125.563 148.442L141.212 154.883L161.482 161.312L177.131 165.913L191.868 170.514L207.53 174.182L223.179 176.943L237.916 178.783L248.969 179.704L250.817 176.943V172.342L251.729 169.594L257.262 163.153L259.098 159.472L260.946 156.724L262.782 150.283H261.87H259.098L258.186 148.442L260.946 145.694L267.391 148.442L271.075 147.522V143.854L269.239 141.093L263.706 137.412L249.893 134.652L248.969 132.824V131.904L249.893 130.063L255.414 131.904L266.467 136.492L268.315 139.253L271.999 137.412L277.52 141.093L282.128 137.412L290.421 134.652L294.105 128.223L295.941 123.622L285.812 121.794L279.368 115.353V112.592L289.497 117.193L293.181 119.034L295.941 115.353L298.701 112.592L297.789 110.752L295.941 108.004L298.701 106.163L306.07 110.752L307.918 109.844L306.07 106.163L306.994 103.403L310.678 108.004L315.287 106.163L317.123 103.403L318.971 99.7222L319.883 96.9739L313.439 88.6924L315.287 84.1038L316.199 74.9021L305.146 68.4731L300.55 73.0617L301.461 84.1038L296.865 90.5327L294.105 96.9739L288.572 92.3731L290.421 82.2635L285.812 74.9021L281.204 85.9319L279.368 77.6626L268.315 70.3135L271.075 63.8723L265.555 48.2416L262.782 44.5732L261.87 46.4135L255.414 66.6328L264.631 74.9021L257.262 87.7722L253.578 99.7222L247.133 84.1038L239.764 88.6924L231.472 90.5327L216.734 81.3433L215.822 73.0617L201.085 74.9021L204.77 81.3433L201.085 95.1336L192.792 76.7424L175.295 73.0617L174.371 66.6328H178.979L178.055 60.2038L169.762 57.4433L164.242 48.2416L158.722 44.5732L155.037 39.0522L148.581 38.132L149.505 32.6232L143.984 35.3715L141.212 30.7829L143.06 24.3417L141.212 21.5934L137.54 24.3417L133.856 26.182L124.639 24.3417L118.194 19.7531L124.639 21.5934L132.007 22.5136L133.856 21.5934L125.563 16.9926H117.27L111.75 17.9127L108.065 21.5934L106.217 16.9926L102.533 15.1522Z" fill="#E8EBEB" stroke="white" stroke-width="3" stroke-miterlimit="10" stroke-linecap="square"/>
<path d="M295.017 22.5135L295.941 26.182L295.017 30.7828L291.333 35.3714L290.421 39.0521L291.333 41.8126L295.941 46.4135L296.865 52.8424L298.701 54.6828H301.461L303.31 49.1617L300.55 46.4135L299.625 43.653L300.55 41.8126V39.0521L298.701 37.2118H297.789L298.701 32.6232L303.31 27.1021L306.994 22.5135H307.918L309.754 24.3416V28.0223L311.603 30.7828L312.514 35.3714L311.603 43.653L312.514 44.5731L317.123 39.9723L318.971 39.0521L321.731 43.653H323.567L324.492 39.0521L321.731 37.2118V35.3714L325.416 33.5433L330.012 35.3714L330.936 39.9723L334.62 37.2118L335.545 39.9723V43.653L339.229 44.5731L341.065 48.2416L343.837 46.4135L342.913 41.8126H345.673L349.358 46.4135L347.522 51.0021L352.118 54.6828L354.89 52.8424L355.802 48.2416H361.335L362.247 52.8424L358.562 57.4433L359.486 59.2836L364.095 55.6029V52.8424L365.931 51.0021H369.615L366.855 55.6029L364.095 59.2836H367.779L371.464 60.2038L374.224 59.2836L375.148 62.0319L373.3 63.8722H369.615L365.931 65.7126L369.615 70.3134H374.224L378.832 74.902H382.517L386.201 73.0617H388.037L389.885 74.902L388.961 77.6625L390.797 79.5029H394.481L396.33 77.6625L397.254 79.5029L398.166 81.3432L402.774 79.5029H405.534L407.383 81.3432L406.458 84.1037H403.698V85.9318L404.622 88.6923H405.534V92.373H402.774V95.1335L405.534 96.9739V101.562H402.774L400.938 99.7221H399.09L397.254 98.802L394.481 92.373L392.645 90.5327L387.113 92.373H381.592L384.353 95.1335V96.9739H380.668H379.756L382.517 99.7221L385.277 103.403H388.037L390.797 108.004L394.481 106.163L398.166 108.004L399.09 112.592L405.534 114.433L404.622 117.193V121.794L408.307 126.383L409.219 128.223H401.85L391.721 121.794L390.797 123.622H387.113L386.201 126.383L394.481 130.063L397.254 132.824H403.698L406.458 134.652L403.698 141.093L391.721 137.412H386.201L382.517 136.492L376.072 137.412L371.464 132.824L372.388 128.223H368.703L361.335 125.462L358.562 119.033H354.89L355.802 125.462L351.206 123.622L348.433 126.383L341.065 128.223L335.545 123.622L338.305 115.353H341.989H347.522L354.89 112.592V109.844L352.118 106.163L353.966 101.562L356.726 96.9739H363.171L366.855 99.7221H370.539L373.3 96.9739L371.464 92.373H364.095V95.1335H360.411L356.726 92.373L357.65 87.7722L356.726 85.9318L344.749 73.0617L335.545 70.3134L332.784 66.6327L329.1 62.0319L324.492 59.2836H321.731L324.492 65.7126L323.567 66.6327L317.123 63.8722H313.439L308.83 68.4731L297.789 63.8722H292.257L285.812 59.2836L284.888 54.6828H286.736L290.421 55.6029L291.333 52.8424H286.736L285.812 49.1617L282.128 48.2416L281.204 43.653L282.128 37.2118L284.888 32.6232L291.333 24.3416L295.017 22.5135Z" fill="#E8EBEB" stroke="white" stroke-width="3" stroke-miterlimit="10" stroke-linecap="square"/>
</g>
<defs>
<clipPath id="clip0_17_425">
<rect width="556" height="385" fill="white"/>
</clipPath>
</defs>
</svg>
