<svg width="26" height="26" viewBox="0 0 26 26" fill="none" xmlns="http://www.w3.org/2000/svg">
<rect x="0.5" y="0.5" width="25" height="25" rx="4.5" fill="white" fill-opacity="0.7"/>
<rect x="0.5" y="0.5" width="25" height="25" rx="4.5" stroke="#E6E6E6"/>
<path fill-rule="evenodd" clip-rule="evenodd" d="M13.5227 4.58305C9.8739 4.57065 6.89354 7.47366 6.77442 11.1074L6.77075 11.333C6.8314 13.1141 7.43739 14.8119 8.50473 16.2107L8.7554 16.5378C9.77418 17.8332 10.9849 18.9702 12.3443 19.9074L12.6716 20.1277L12.7194 20.1652C13.1853 20.5 13.8144 20.5 14.2804 20.1652L14.3201 20.1325C15.3988 19.433 16.3935 18.611 17.2845 17.6829C19.0959 15.7655 20.1877 13.6169 20.2289 11.4349L20.229 11.3539C20.2414 7.69578 17.3473 4.70625 13.7247 4.58672L13.5227 4.58305ZM13.5186 5.78432C16.51 5.79455 18.9387 8.18462 19.0288 11.161L19.0314 11.4235C18.9968 13.2529 18.0389 15.1378 16.4185 16.8532C15.5922 17.7138 14.6658 18.4788 13.6611 19.1294L13.5941 19.1798C13.54 19.2267 13.4597 19.2267 13.4056 19.1798L13.3405 19.1307C11.8437 18.1534 10.53 16.9196 9.45954 15.4856C8.59727 14.3555 8.08631 13.0043 7.98346 11.5947L7.96835 11.3121C7.97851 8.3135 10.3612 5.87736 13.3285 5.7869L13.5186 5.78432ZM13.4998 8.85938C12.084 8.85938 10.9363 10.0107 10.9363 11.4308C10.9363 12.851 12.084 14.0023 13.4998 14.0023C14.9156 14.0023 16.0634 12.851 16.0634 11.4308C16.0634 10.0107 14.9156 8.85938 13.4998 8.85938ZM13.4998 10.0607C14.2542 10.0607 14.8658 10.6741 14.8658 11.4308C14.8658 12.1876 14.2542 12.801 13.4998 12.801C12.7454 12.801 12.1339 12.1876 12.1339 11.4308C12.1339 10.6741 12.7454 10.0607 13.4998 10.0607Z" fill="#121212"/>
</svg>
