<svg width="162" height="70" viewBox="0 0 162 70" fill="none" xmlns="http://www.w3.org/2000/svg">
<g clip-path="url(#clip0_23_198)">
<path d="M35.1883 64.0678C26.5119 62.5489 4.36937 53.2493 2.4425 37.1121C0.258355 56.0513 25.7291 66.952 35.1883 68.608L57.6921 46.0662V41.6412L35.1883 64.0678Z" fill="#202023" fill-opacity="0.9"/>
<path d="M53.4603 12.6733C44.1654 16.8076 36.0145 22.2141 38.7734 27.7468C43.388 17.9646 75.2251 7.76026 75.2251 7.76026C75.2251 7.76026 75.4277 5.50663 75.4277 4.23999C73.2271 5.01313 58.491 10.5567 56.1645 11.5163L53.4603 12.6733Z" fill="#202023" fill-opacity="0.9"/>
<path d="M57.6925 37.4468C53.2421 35.2371 48.2498 32.5887 42.5896 28.8491C23.0691 15.9524 75.2204 2.34296 75.2204 2.34296C75.2204 2.34296 15.2138 -4.56597 4.12341 22.1924C-5.33028 45.0138 24.7223 58.1572 35.1887 59.9886L57.6925 37.4468ZM47.8666 5.6439C48.8793 5.42457 50.2533 5.1833 51.6163 4.93107C52.9848 4.70625 54.3533 4.465 55.3824 4.32243C56.4116 4.1689 57.0958 4.06472 57.0958 4.06472L57.1889 4.6569C57.1889 4.6569 56.5101 4.78302 55.4919 4.96945C54.4683 5.1504 53.1162 5.43005 51.7641 5.70421C50.4175 6.00031 49.0709 6.27996 48.0636 6.53219C47.0564 6.77345 46.3776 6.93795 46.3776 6.93795L46.1696 5.99482C46.1696 5.99482 46.8484 5.85774 47.8666 5.64937V5.6439ZM31.5156 10.354C31.9918 10.1511 32.5556 9.91536 33.1852 9.69603C33.8037 9.47122 34.4661 9.21898 35.1284 8.98868C35.7908 8.77484 36.4586 8.56099 37.0827 8.35811C37.7067 8.14975 38.2979 7.99073 38.7961 7.84268C39.8033 7.55755 40.4711 7.36015 40.4711 7.36015L40.7886 8.47325C40.7886 8.47325 40.1317 8.68163 39.1464 8.99966C38.6537 9.15867 38.079 9.33413 37.4713 9.55895C36.8637 9.77828 36.2178 10.0086 35.5718 10.2444C34.9369 10.4911 34.3073 10.7543 33.7107 10.9901C33.1195 11.2149 32.5666 11.4671 32.0958 11.6865C31.1488 12.1196 30.5193 12.4103 30.5193 12.4103L29.9062 11.012C29.9062 11.012 30.5467 10.7433 31.5046 10.3431L31.5156 10.354ZM23.299 38.867C23.299 38.867 23.1786 38.7409 22.9706 38.5271C22.768 38.3187 22.4396 37.9733 22.0783 37.573C21.3557 36.7669 20.4306 35.6483 19.6314 34.4146C18.8212 33.1973 18.1534 31.8649 17.7593 30.8121C17.5567 30.2912 17.4199 29.8415 17.3323 29.5235C17.2447 29.2055 17.1954 29.0246 17.1954 29.0246L19.3851 28.4543C19.3851 28.4543 19.4289 28.6078 19.511 28.871C19.5931 29.1342 19.7245 29.5126 19.9051 29.9512C20.2664 30.8395 20.8795 31.98 21.6404 33.0493C22.3848 34.124 23.2607 35.1219 23.945 35.8457C24.2898 36.2076 24.5635 36.4818 24.788 36.7011C25.0069 36.9095 25.1328 37.0356 25.1328 37.0356L23.3045 38.867H23.299ZM25.2533 15.5412C25.0124 15.7112 24.6785 15.9634 24.2843 16.276C23.507 16.9065 22.5053 17.7893 21.6677 18.7928C21.2462 19.2918 20.8631 19.8127 20.5456 20.3281C20.2226 20.838 19.9708 21.3315 19.7847 21.7702C19.6916 21.9895 19.604 22.1869 19.5493 22.3569C19.4891 22.5324 19.4343 22.664 19.3905 22.823C19.3084 23.1191 19.2592 23.2836 19.2592 23.2836L17.2721 22.6694C17.2721 22.6694 17.3268 22.505 17.4199 22.2143C17.4582 22.0773 17.5458 21.8744 17.6279 21.6495C17.71 21.4193 17.8195 21.1835 17.9399 20.9258C18.1808 20.4158 18.4983 19.8346 18.8924 19.2589C19.2811 18.6721 19.7409 18.0909 20.2335 17.5481C21.2134 16.4459 22.3356 15.5248 23.195 14.8777C23.6275 14.5542 23.9942 14.2965 24.2515 14.1265C24.5143 13.9511 24.6621 13.8524 24.6621 13.8524L25.62 15.278C25.62 15.278 25.4832 15.3767 25.2478 15.5467L25.2533 15.5412ZM30.7109 44.948C30.158 44.5861 29.6599 44.2132 29.2384 43.8952C28.3844 43.2591 27.8151 42.8369 27.8151 42.8369L29.4737 40.6271C29.4737 40.6271 30.0266 41.0165 30.8642 41.5977C31.2747 41.8883 31.7619 42.2283 32.3038 42.5627C32.8403 42.9027 33.4151 43.2701 33.9844 43.632C34.5646 43.9774 35.1449 44.3174 35.6923 44.6409C36.2287 44.9644 36.7707 45.255 37.2195 45.5073C38.1282 46.0117 38.7358 46.3407 38.7358 46.3407L37.2086 49.022C37.2086 49.022 36.6119 48.6711 35.7196 48.1447C35.2708 47.8815 34.7507 47.5799 34.1869 47.218C33.6231 46.8616 33.0264 46.4833 32.4243 46.1049C31.8385 45.7047 31.2528 45.3099 30.7054 44.937L30.7109 44.948Z" fill="url(#paint0_linear_23_198)"/>
<path d="M76.6767 24.0907L73.2835 34.7305H70.143L75.0072 21.5909H76.9925L76.6767 24.0907ZM79.4923 34.7305L76.0901 24.0907L75.7382 21.5909H77.7506L82.6328 34.7305H79.4923ZM79.3479 29.8392V32.1134H72.4984V29.8392H79.3479ZM91.837 30.3266H94.7609C94.7128 31.229 94.4661 32.0261 94.0209 32.718C93.5817 33.4039 92.9711 33.9423 92.189 34.3334C91.4068 34.7184 90.4773 34.911 89.4004 34.911C88.5401 34.911 87.77 34.7636 87.0902 34.4688C86.4103 34.174 85.8328 33.7528 85.3575 33.2053C84.8882 32.6518 84.5272 31.987 84.2745 31.2109C84.0279 30.4288 83.9045 29.5474 83.9045 28.5668V27.7636C83.9045 26.783 84.0339 25.9016 84.2926 25.1195C84.5513 24.3373 84.9213 23.6695 85.4026 23.116C85.8839 22.5625 86.4615 22.1384 87.1353 21.8436C87.8091 21.5488 88.5611 21.4014 89.3914 21.4014C90.5104 21.4014 91.455 21.6029 92.2251 22.006C92.9951 22.4091 93.5908 22.9626 94.0119 23.6665C94.439 24.3704 94.6947 25.1736 94.779 26.076H91.846C91.822 25.5647 91.7257 25.1345 91.5572 24.7856C91.3888 24.4306 91.1301 24.1629 90.7811 23.9824C90.4322 23.8019 89.9689 23.7116 89.3914 23.7116C88.9702 23.7116 88.6002 23.7899 88.2814 23.9463C87.9685 24.1027 87.7068 24.3464 87.4963 24.6773C87.2917 25.0082 87.1383 25.4293 87.036 25.9407C86.9337 26.446 86.8826 27.0477 86.8826 27.7456V28.5668C86.8826 29.2587 86.9277 29.8573 87.018 30.3626C87.1082 30.868 87.2526 31.2861 87.4511 31.617C87.6557 31.9479 87.9174 32.1946 88.2363 32.357C88.5551 32.5195 88.9432 32.6007 89.4004 32.6007C89.9238 32.6007 90.36 32.5195 90.709 32.357C91.0579 32.1886 91.3256 31.9359 91.5121 31.599C91.6986 31.2621 91.8069 30.8379 91.837 30.3266ZM102.178 22.737H105.283C106.071 22.737 106.796 22.8664 107.458 23.1251C108.125 23.3838 108.706 23.7538 109.199 24.2351C109.693 24.7164 110.075 25.2939 110.345 25.9678C110.616 26.6416 110.751 27.3966 110.751 28.2329C110.751 29.0451 110.616 29.7821 110.345 30.4439C110.075 31.0996 109.693 31.6652 109.199 32.1405C108.706 32.6097 108.125 32.9707 107.458 33.2234C106.796 33.4701 106.071 33.5934 105.283 33.5934H102.178C101.384 33.5934 100.653 33.4701 99.9853 33.2234C99.3175 32.9707 98.7339 32.6097 98.2346 32.1405C97.7413 31.6712 97.3592 31.1087 97.0885 30.4529C96.8178 29.7971 96.6824 29.0631 96.6824 28.2509C96.6824 27.4147 96.8178 26.6596 97.0885 25.9858C97.3592 25.312 97.7413 24.7314 98.2346 24.2441C98.7339 23.7568 99.3175 23.3838 99.9853 23.1251C100.653 22.8664 101.384 22.737 102.178 22.737ZM102.178 25.0924C101.649 25.0924 101.177 25.2097 100.761 25.4443C100.352 25.679 100.03 26.0309 99.7958 26.5002C99.5672 26.9634 99.4529 27.547 99.4529 28.2509C99.4529 28.7443 99.5191 29.1804 99.6514 29.5595C99.7898 29.9325 99.9823 30.2423 100.229 30.489C100.482 30.7357 100.773 30.9222 101.104 31.0485C101.435 31.1748 101.793 31.238 102.178 31.238H105.301C105.824 31.238 106.284 31.1267 106.681 30.9041C107.085 30.6755 107.4 30.3356 107.629 29.8844C107.858 29.4331 107.972 28.8826 107.972 28.2329C107.972 27.7095 107.906 27.2522 107.773 26.8612C107.641 26.4701 107.455 26.1452 107.214 25.8865C106.979 25.6218 106.7 25.4233 106.375 25.2909C106.05 25.1586 105.692 25.0924 105.301 25.0924H102.178ZM105.138 21.0494V35.2719H102.323V21.0494H105.138ZM118.62 24.0907L115.227 34.7305H112.086L116.951 21.5909H118.936L118.62 24.0907ZM121.436 34.7305L118.033 24.0907L117.682 21.5909H119.694L124.576 34.7305H121.436ZM121.291 29.8392V32.1134H114.442V29.8392H121.291ZM135.414 21.5909V23.8741H128.754V21.5909H135.414ZM137.453 21.5909V34.7305H134.511V21.5909H137.453ZM128.474 21.5909H131.398L131.064 28.2329C131.01 29.2256 130.911 30.0889 130.766 30.8229C130.628 31.5509 130.435 32.1675 130.189 32.6729C129.948 33.1723 129.656 33.5753 129.313 33.8822C128.97 34.183 128.57 34.3996 128.113 34.5319C127.656 34.6643 127.135 34.7305 126.552 34.7305H125.839V32.4563L126.182 32.4202C126.471 32.3962 126.72 32.3209 126.931 32.1946C127.147 32.0683 127.334 31.8818 127.49 31.6351C127.647 31.3824 127.776 31.0605 127.878 30.6695C127.987 30.2784 128.071 29.8031 128.131 29.2436C128.197 28.6841 128.242 28.0283 128.266 27.2763L128.474 21.5909ZM142.236 26.2475H145.177C146.224 26.2475 147.133 26.422 147.903 26.7709C148.673 27.1199 149.266 27.6102 149.681 28.2419C150.096 28.8676 150.303 29.6016 150.303 30.4439C150.303 31.0756 150.183 31.6531 149.942 32.1766C149.708 32.7 149.365 33.1542 148.914 33.5392C148.468 33.9183 147.93 34.2131 147.298 34.4236C146.673 34.6282 145.966 34.7305 145.177 34.7305H140.358V21.5909H143.309V32.4563H145.177C145.659 32.4563 146.062 32.3661 146.387 32.1856C146.712 31.9991 146.955 31.7524 147.118 31.4456C147.286 31.1387 147.37 30.7988 147.37 30.4258C147.37 30.0588 147.286 29.7339 147.118 29.4512C146.955 29.1624 146.712 28.9368 146.387 28.7743C146.062 28.6059 145.659 28.5217 145.177 28.5217H142.236V26.2475ZM157.612 21.5909V34.7305H154.679V21.5909H157.612ZM161.61 21.5909V23.8741H150.763V21.5909H161.61Z" fill="#121212"/>
<path d="M75.8939 44.0577V45.1993H72.9881V50.6274H71.5216V44.0577H75.8939ZM72.4646 46.386H73.9356C74.459 46.386 74.9133 46.4732 75.2983 46.6477C75.6833 46.8221 75.9796 47.0673 76.1872 47.3832C76.3948 47.696 76.4986 48.063 76.4986 48.4841C76.4986 48.8 76.4384 49.0888 76.3181 49.3505C76.2007 49.6122 76.0293 49.8393 75.8037 50.0318C75.5811 50.2213 75.3118 50.3687 74.996 50.474C74.6831 50.5763 74.3297 50.6274 73.9356 50.6274H71.5261V44.0577H73.0016V49.4904H73.9356C74.1763 49.4904 74.3778 49.4452 74.5403 49.355C74.7027 49.2617 74.8245 49.1384 74.9057 48.985C74.99 48.8316 75.0321 48.6616 75.0321 48.4751C75.0321 48.2916 74.99 48.1292 74.9057 47.9878C74.8245 47.8434 74.7027 47.7306 74.5403 47.6494C74.3778 47.5652 74.1763 47.523 73.9356 47.523H72.4646V46.386ZM81.7327 44.0577V45.1993H78.4027V44.0577H81.7327ZM82.7525 44.0577V50.6274H81.2815V44.0577H82.7525ZM78.2628 44.0577H79.7248L79.5578 47.3786C79.5308 47.875 79.4811 48.3067 79.4089 48.6737C79.3397 49.0376 79.2435 49.346 79.1201 49.5987C78.9998 49.8483 78.8539 50.0499 78.6825 50.2033C78.511 50.3537 78.311 50.462 78.0823 50.5282C77.8537 50.5944 77.5935 50.6274 77.3017 50.6274H76.9453V49.4904L77.1167 49.4723C77.2611 49.4603 77.386 49.4227 77.4912 49.3595C77.5995 49.2963 77.6928 49.2031 77.771 49.0798C77.8492 48.9534 77.9139 48.7925 77.965 48.5969C78.0192 48.4014 78.0613 48.1638 78.0914 47.884C78.1245 47.6043 78.147 47.2764 78.159 46.9004L78.2628 44.0577ZM86.6465 45.3075L84.9499 50.6274H83.3797L85.8118 44.0577H86.8044L86.6465 45.3075ZM88.0543 50.6274L86.3532 45.3075L86.1772 44.0577H87.1835L89.6246 50.6274H88.0543ZM87.9821 48.1818V49.3189H84.5574V48.1818H87.9821ZM94.5429 44.0577V45.1993H91.637V50.6274H90.1706V44.0577H94.5429ZM100.494 47.1982V47.4915C100.494 47.9908 100.425 48.439 100.287 48.8361C100.152 49.2332 99.9575 49.5716 99.7049 49.8513C99.4552 50.1311 99.1574 50.3462 98.8114 50.4966C98.4685 50.644 98.088 50.7177 97.6699 50.7177C97.2517 50.7177 96.8697 50.644 96.5237 50.4966C96.1778 50.3462 95.877 50.1311 95.6213 49.8513C95.3686 49.5716 95.1731 49.2332 95.0347 48.8361C94.8963 48.439 94.8272 47.9908 94.8272 47.4915V47.1982C94.8272 46.6988 94.8963 46.2506 95.0347 45.8535C95.1731 45.4534 95.3671 45.1135 95.6168 44.8338C95.8695 44.554 96.1688 44.3404 96.5147 44.193C96.8607 44.0426 97.2427 43.9674 97.6608 43.9674C98.079 43.9674 98.461 44.0426 98.8069 44.193C99.1529 44.3404 99.4507 44.554 99.7003 44.8338C99.953 45.1135 100.149 45.4534 100.287 45.8535C100.425 46.2506 100.494 46.6988 100.494 47.1982ZM99.01 47.4915V47.1891C99.01 46.8552 98.9799 46.5604 98.9197 46.3047C98.8596 46.046 98.7723 45.8295 98.658 45.655C98.5437 45.4805 98.4023 45.3497 98.2339 45.2624C98.0654 45.1722 97.8744 45.1271 97.6608 45.1271C97.4382 45.1271 97.2442 45.1722 97.0788 45.2624C96.9133 45.3497 96.7734 45.4805 96.6591 45.655C96.5478 45.8295 96.4621 46.046 96.4019 46.3047C96.3448 46.5604 96.3162 46.8552 96.3162 47.1891V47.4915C96.3162 47.8223 96.3448 48.1171 96.4019 48.3758C96.4621 48.6315 96.5493 48.8481 96.6636 49.0256C96.7779 49.2031 96.9178 49.3369 97.0833 49.4272C97.2517 49.5174 97.4472 49.5626 97.6699 49.5626C97.8834 49.5626 98.0729 49.5174 98.2384 49.4272C98.4068 49.3369 98.5482 49.2031 98.6625 49.0256C98.7768 48.8481 98.8626 48.6315 98.9197 48.3758C98.9799 48.1171 99.01 47.8223 99.01 47.4915ZM103.473 48.1999L105.052 44.0577H106.618L104.384 49.3099C104.303 49.4964 104.21 49.6754 104.104 49.8468C103.999 50.0153 103.874 50.1657 103.73 50.298C103.588 50.4274 103.418 50.5312 103.22 50.6094C103.024 50.6846 102.793 50.7222 102.525 50.7222C102.456 50.7222 102.373 50.7207 102.277 50.7177C102.184 50.7147 102.105 50.7117 102.042 50.7087L102.024 49.5671C102.063 49.5761 102.119 49.5821 102.191 49.5851C102.266 49.5851 102.319 49.5851 102.349 49.5851C102.53 49.5851 102.671 49.5611 102.773 49.5129C102.878 49.4648 102.961 49.3956 103.021 49.3054C103.085 49.2151 103.14 49.1023 103.188 48.9669L103.473 48.1999ZM102.493 44.0577L103.919 47.1079L104.384 48.7684L103.315 48.7774L100.928 44.0577H102.493ZM110.913 48.4255H112.375C112.351 48.8767 112.228 49.2753 112.005 49.6212C111.786 49.9641 111.48 50.2334 111.089 50.4289C110.698 50.6214 110.233 50.7177 109.695 50.7177C109.265 50.7177 108.88 50.644 108.54 50.4966C108.2 50.3492 107.911 50.1386 107.673 49.8649C107.439 49.5881 107.258 49.2557 107.132 48.8677C107.009 48.4766 106.947 48.0359 106.947 47.5456V47.144C106.947 46.6537 107.012 46.213 107.141 45.8219C107.27 45.4309 107.455 45.097 107.696 44.8202C107.937 44.5435 108.225 44.3314 108.562 44.184C108.899 44.0366 109.275 43.9629 109.69 43.9629C110.25 43.9629 110.722 44.0637 111.107 44.2652C111.492 44.4668 111.79 44.7435 112.001 45.0955C112.214 45.4474 112.342 45.849 112.384 46.3002H110.918C110.906 46.0445 110.858 45.8295 110.773 45.655C110.689 45.4775 110.56 45.3436 110.385 45.2534C110.211 45.1632 109.979 45.118 109.69 45.118C109.48 45.118 109.295 45.1571 109.135 45.2353C108.979 45.3136 108.848 45.4354 108.743 45.6008C108.641 45.7663 108.564 45.9769 108.513 46.2325C108.462 46.4852 108.436 46.786 108.436 47.135V47.5456C108.436 47.8915 108.459 48.1908 108.504 48.4435C108.549 48.6962 108.621 48.9053 108.72 49.0707C108.823 49.2362 108.953 49.3595 109.113 49.4407C109.272 49.5219 109.466 49.5626 109.695 49.5626C109.957 49.5626 110.175 49.5219 110.349 49.4407C110.524 49.3565 110.657 49.2302 110.751 49.0617C110.844 48.8932 110.898 48.6812 110.913 48.4255ZM116.116 44.0577V50.6274H114.649V44.0577H116.116ZM118.115 44.0577V45.1993H112.691V44.0577H118.115ZM121.431 48.3443H119.78V47.2027H121.431C121.675 47.2027 121.87 47.1621 122.018 47.0808C122.168 46.9996 122.278 46.8883 122.347 46.7469C122.419 46.6025 122.455 46.4401 122.455 46.2596C122.455 46.0731 122.419 45.9001 122.347 45.7407C122.278 45.5783 122.168 45.4474 122.018 45.3482C121.87 45.2489 121.675 45.1993 121.431 45.1993H120.312V50.6274H118.841V44.0577H121.431C121.955 44.0577 122.403 44.1524 122.776 44.3419C123.152 44.5314 123.439 44.7916 123.638 45.1225C123.839 45.4504 123.94 45.8264 123.94 46.2506C123.94 46.6747 123.839 47.0432 123.638 47.3561C123.439 47.6689 123.152 47.9126 122.776 48.0871C122.403 48.2585 121.955 48.3443 121.431 48.3443ZM130.311 47.1982V47.4915C130.311 47.9908 130.242 48.439 130.104 48.8361C129.968 49.2332 129.774 49.5716 129.522 49.8513C129.272 50.1311 128.974 50.3462 128.628 50.4966C128.285 50.644 127.905 50.7177 127.487 50.7177C127.068 50.7177 126.686 50.644 126.34 50.4966C125.995 50.3462 125.694 50.1311 125.438 49.8513C125.185 49.5716 124.99 49.2332 124.851 48.8361C124.713 48.439 124.644 47.9908 124.644 47.4915V47.1982C124.644 46.6988 124.713 46.2506 124.851 45.8535C124.99 45.4534 125.184 45.1135 125.433 44.8338C125.686 44.554 125.985 44.3404 126.331 44.193C126.677 44.0426 127.059 43.9674 127.478 43.9674C127.896 43.9674 128.278 44.0426 128.624 44.193C128.97 44.3404 129.267 44.554 129.517 44.8338C129.77 45.1135 129.965 45.4534 130.104 45.8535C130.242 46.2506 130.311 46.6988 130.311 47.1982ZM128.827 47.4915V47.1891C128.827 46.8552 128.797 46.5604 128.736 46.3047C128.676 46.046 128.589 45.8295 128.475 45.655C128.36 45.4805 128.219 45.3497 128.051 45.2624C127.882 45.1722 127.691 45.1271 127.478 45.1271C127.255 45.1271 127.061 45.1722 126.895 45.2624C126.73 45.3497 126.59 45.4805 126.476 45.655C126.365 45.8295 126.279 46.046 126.219 46.3047C126.161 46.5604 126.133 46.8552 126.133 47.1891V47.4915C126.133 47.8223 126.161 48.1171 126.219 48.3758C126.279 48.6315 126.366 48.8481 126.48 49.0256C126.595 49.2031 126.735 49.3369 126.9 49.4272C127.068 49.5174 127.264 49.5626 127.487 49.5626C127.7 49.5626 127.89 49.5174 128.055 49.4272C128.224 49.3369 128.365 49.2031 128.479 49.0256C128.594 48.8481 128.679 48.6315 128.736 48.3758C128.797 48.1171 128.827 47.8223 128.827 47.4915ZM132.612 48.3533L135.117 44.0577H136.583V50.6274H135.117V46.3363L132.612 50.6274H131.146V44.0577H132.612V48.3533ZM134.512 42.3114H135.496C135.496 42.5762 135.43 42.8108 135.297 43.0153C135.165 43.2199 134.977 43.3793 134.733 43.4936C134.493 43.6079 134.207 43.6651 133.876 43.6651C133.379 43.6651 132.985 43.5403 132.694 43.2906C132.402 43.0379 132.256 42.7115 132.256 42.3114H133.235C133.235 42.4649 133.283 42.6017 133.379 42.722C133.479 42.8394 133.644 42.898 133.876 42.898C134.11 42.898 134.274 42.8394 134.368 42.722C134.464 42.6017 134.512 42.4649 134.512 42.3114ZM141.425 48.4255H142.887C142.863 48.8767 142.739 49.2753 142.517 49.6212C142.297 49.9641 141.992 50.2334 141.601 50.4289C141.21 50.6214 140.745 50.7177 140.206 50.7177C139.776 50.7177 139.391 50.644 139.051 50.4966C138.711 50.3492 138.423 50.1386 138.185 49.8649C137.95 49.5881 137.77 49.2557 137.644 48.8677C137.52 48.4766 137.459 48.0359 137.459 47.5456V47.144C137.459 46.6537 137.523 46.213 137.653 45.8219C137.782 45.4309 137.967 45.097 138.208 44.8202C138.448 44.5435 138.737 44.3314 139.074 44.184C139.411 44.0366 139.787 43.9629 140.202 43.9629C140.761 43.9629 141.234 44.0637 141.619 44.2652C142.004 44.4668 142.302 44.7435 142.512 45.0955C142.726 45.4474 142.854 45.849 142.896 46.3002H141.429C141.417 46.0445 141.369 45.8295 141.285 45.655C141.201 45.4775 141.071 45.3436 140.897 45.2534C140.722 45.1632 140.491 45.118 140.202 45.118C139.991 45.118 139.806 45.1571 139.647 45.2353C139.491 45.3136 139.36 45.4354 139.254 45.6008C139.152 45.7663 139.075 45.9769 139.024 46.2325C138.973 46.4852 138.948 46.786 138.948 47.135V47.5456C138.948 47.8915 138.97 48.1908 139.015 48.4435C139.06 48.6962 139.133 48.9053 139.232 49.0707C139.334 49.2362 139.465 49.3595 139.624 49.4407C139.784 49.5219 139.978 49.5626 140.206 49.5626C140.468 49.5626 140.686 49.5219 140.861 49.4407C141.035 49.3565 141.169 49.2302 141.262 49.0617C141.356 48.8932 141.41 48.6812 141.425 48.4255ZM146.627 44.0577V50.6274H145.161V44.0577H146.627ZM148.626 44.0577V45.1993H143.203V44.0577H148.626ZM151.979 47.7893H150.291L150.282 46.8056H151.677C151.923 46.8056 152.123 46.7755 152.277 46.7154C152.433 46.6552 152.547 46.568 152.62 46.4536C152.692 46.3363 152.728 46.1919 152.728 46.0205C152.728 45.8249 152.692 45.667 152.62 45.5467C152.547 45.4264 152.433 45.3391 152.277 45.285C152.123 45.2278 151.925 45.1993 151.681 45.1993H150.824V50.6274H149.353V44.0577H151.681C152.075 44.0577 152.427 44.0938 152.737 44.166C153.047 44.2381 153.31 44.3495 153.527 44.4999C153.746 44.6503 153.913 44.8383 154.027 45.0639C154.142 45.2895 154.199 45.5557 154.199 45.8625C154.199 46.1303 154.139 46.3799 154.018 46.6116C153.901 46.8432 153.712 47.0312 153.45 47.1756C153.188 47.32 152.838 47.3982 152.398 47.4102L151.979 47.7893ZM151.92 50.6274H149.917L150.449 49.4904H151.92C152.146 49.4904 152.329 49.4543 152.471 49.3821C152.612 49.3099 152.716 49.2121 152.782 49.0888C152.848 48.9654 152.881 48.8271 152.881 48.6737C152.881 48.4932 152.85 48.3367 152.787 48.2044C152.726 48.072 152.63 47.9697 152.498 47.8976C152.368 47.8254 152.195 47.7893 151.979 47.7893H150.661L150.67 46.8056H152.281L152.624 47.1936C153.042 47.1846 153.376 47.2523 153.626 47.3967C153.878 47.5381 154.06 47.7246 154.172 47.9562C154.283 48.1878 154.339 48.433 154.339 48.6917C154.339 49.1189 154.247 49.4768 154.063 49.7656C153.88 50.0514 153.608 50.2665 153.247 50.4109C152.889 50.5552 152.447 50.6274 151.92 50.6274ZM160.769 47.1982V47.4915C160.769 47.9908 160.699 48.439 160.561 48.8361C160.426 49.2332 160.232 49.5716 159.979 49.8513C159.729 50.1311 159.432 50.3462 159.086 50.4966C158.743 50.644 158.362 50.7177 157.944 50.7177C157.526 50.7177 157.144 50.644 156.798 50.4966C156.452 50.3462 156.151 50.1311 155.895 49.8513C155.643 49.5716 155.447 49.2332 155.309 48.8361C155.17 48.439 155.101 47.9908 155.101 47.4915V47.1982C155.101 46.6988 155.17 46.2506 155.309 45.8535C155.447 45.4534 155.641 45.1135 155.891 44.8338C156.144 44.554 156.443 44.3404 156.789 44.193C157.135 44.0426 157.517 43.9674 157.935 43.9674C158.353 43.9674 158.735 44.0426 159.081 44.193C159.427 44.3404 159.725 44.554 159.974 44.8338C160.227 45.1135 160.423 45.4534 160.561 45.8535C160.699 46.2506 160.769 46.6988 160.769 47.1982ZM159.284 47.4915V47.1891C159.284 46.8552 159.254 46.5604 159.194 46.3047C159.134 46.046 159.046 45.8295 158.932 45.655C158.818 45.4805 158.676 45.3497 158.508 45.2624C158.34 45.1722 158.149 45.1271 157.935 45.1271C157.712 45.1271 157.518 45.1722 157.353 45.2624C157.187 45.3497 157.048 45.4805 156.933 45.655C156.822 45.8295 156.736 46.046 156.676 46.3047C156.619 46.5604 156.59 46.8552 156.59 47.1891V47.4915C156.59 47.8223 156.619 48.1171 156.676 48.3758C156.736 48.6315 156.823 48.8481 156.938 49.0256C157.052 49.2031 157.192 49.3369 157.357 49.4272C157.526 49.5174 157.721 49.5626 157.944 49.5626C158.158 49.5626 158.347 49.5174 158.513 49.4272C158.681 49.3369 158.822 49.2031 158.937 49.0256C159.051 48.8481 159.137 48.6315 159.194 48.3758C159.254 48.1171 159.284 47.8223 159.284 47.4915Z" fill="#121212"/>
</g>
<defs>
<linearGradient id="paint0_linear_23_198" x1="38.7632" y1="59.8186" x2="38.7632" y2="11.5165" gradientUnits="userSpaceOnUse">
<stop stop-color="#999999"/>
<stop offset="1" stop-color="#7C7C7C"/>
</linearGradient>
<clipPath id="clip0_23_198">
<rect width="162" height="70" fill="white"/>
</clipPath>
</defs>
</svg>
