<svg width="26" height="26" viewBox="0 0 26 26" fill="none" xmlns="http://www.w3.org/2000/svg">
<rect x="0.5" y="0.5" width="25" height="25" rx="4.5" fill="white" fill-opacity="0.7"/>
<rect x="0.5" y="0.5" width="25" height="25" rx="4.5" stroke="#E6E6E6"/>
<g clip-path="url(#clip0_23_461)">
<path d="M18.7128 8H7.225C6.54817 8 6 8.56283 6 9.25V16.75C6 17.4412 6.5522 18 7.225 18H18.7128C19.3839 18 19.9378 17.4436 19.9378 16.75V9.25C19.9378 8.56406 19.3918 8 18.7128 8ZM18.5412 8.83334C18.2909 9.08736 13.9838 13.4592 13.8351 13.6102C13.6037 13.8463 13.2961 13.9763 12.9689 13.9763C12.6417 13.9763 12.3341 13.8463 12.1019 13.6094C12.0019 13.5079 7.7423 9.18427 7.39656 8.83334H18.5412ZM6.81667 16.5804V9.42014L10.3457 13.0022L6.81667 16.5804ZM7.39707 17.1666L10.9247 13.5899L11.5252 14.1994C11.9108 14.5929 12.4236 14.8096 12.9689 14.8096C13.5142 14.8096 14.027 14.5929 14.4118 14.2002L15.0131 13.5899L18.5407 17.1666H7.39707ZM19.1211 16.5804L15.5921 13.0022L19.1211 9.42014V16.5804Z" fill="#121212"/>
</g>
<defs>
<clipPath id="clip0_23_461">
<rect width="14" height="10" fill="white" transform="translate(6 8)"/>
</clipPath>
</defs>
</svg>
