<svg width="26" height="26" viewBox="0 0 26 26" fill="none" xmlns="http://www.w3.org/2000/svg">
<rect x="0.5" y="0.5" width="25" height="25" rx="4.5" fill="white" fill-opacity="0.7"/>
<rect x="0.5" y="0.5" width="25" height="25" rx="4.5" stroke="#E6E6E6"/>
<path fill-rule="evenodd" clip-rule="evenodd" d="M9.22242 6.00124L9.24161 6.00248C9.61925 6.03378 9.94724 6.22145 10.2466 6.51399C10.8156 7.0697 12.0374 8.69134 12.1297 9.13265C12.2318 9.62499 12.1226 9.94475 11.7972 10.5104L11.7183 10.6498C11.569 10.9225 11.5462 11.0351 11.5924 11.1641C12.3029 12.9029 13.5153 14.1151 15.2342 14.8172C15.397 14.8761 15.5199 14.8423 15.8639 14.645L16.0435 14.5434C16.5271 14.2782 16.8337 14.1943 17.2857 14.2885C17.7255 14.3806 19.348 15.6032 19.9029 16.1714C20.195 16.4706 20.3831 16.7991 20.4159 17.2016C20.4504 18.18 19.2566 19.5575 18.5284 19.9717C17.7002 20.564 16.6493 20.5542 15.4709 20.0058C12.3895 18.7235 7.67593 14.0401 6.4198 10.9624L6.3446 10.7903C5.86764 9.65027 5.87797 8.66538 6.42456 7.92287C6.92329 7.09693 8.26798 5.9571 9.22242 6.00124ZM9.16436 7.05529L9.10081 7.05855C8.61094 7.12363 7.62857 7.96937 7.30141 8.5073L7.2449 8.59141C6.96306 9.0506 6.99573 9.6812 7.38811 10.5446L7.4631 10.7202C8.72853 13.5602 13.11 17.8808 15.896 19.0406L16.0494 19.1089C16.8555 19.4506 17.4657 19.4354 17.9597 19.0851L17.9963 19.0616C18.1491 18.9554 18.5016 18.6351 18.7732 18.3218C19.1545 17.8817 19.3706 17.4785 19.3636 17.2638C19.356 17.172 19.2851 17.0482 19.1486 16.9085C18.7362 16.486 17.236 15.3557 17.0702 15.321C16.9135 15.2883 16.7848 15.3322 16.4329 15.5346L16.2559 15.6341C15.7375 15.9136 15.372 15.9888 14.8557 15.8014C12.8546 14.9846 11.434 13.5642 10.6087 11.5431C10.4132 11.0026 10.5184 10.6203 10.8584 10.0277L10.9394 9.88523C11.0938 9.60636 11.1265 9.48804 11.0974 9.34769C11.0626 9.18099 9.93296 7.68172 9.50997 7.26859C9.3699 7.13173 9.24682 7.06131 9.15471 7.05368L9.16436 7.05529Z" fill="#121212"/>
</svg>
